<svg xmlns="http://www.w3.org/2000/svg" x="0px" y="0px" width="100" height="100" viewBox="0,0,256,256">
<g fill="#2dbb8c" fill-rule="nonzero" stroke="none" stroke-width="1" stroke-linecap="butt" stroke-linejoin="miter" stroke-miterlimit="10" stroke-dasharray="" stroke-dashoffset="0" font-family="none" font-weight="none" font-size="none" text-anchor="none" style="mix-blend-mode: normal"><g transform="scale(2.56,2.56)"><path d="M46.19141,14c-3.848,0 -7.24153,2.3173 -8.64453,5.9043l-23.21484,59.42773c-0.587,1.51 -0.39247,3.20516 0.51953,4.53516c0.91,1.335 2.41911,2.13281 4.03711,2.13281h5.83789c1.886,0 3.70619,-0.79192 4.99219,-2.16992c4.408,-4.722 14.67266,-12.94581 27.84766,-20.88281l9.39063,20.2207c0.795,1.721 2.53464,2.83203 4.43164,2.83203h5.83398c1.67,0 3.20542,-0.83823 4.10742,-2.24023c0.905,-1.406 1.0308,-3.15097 0.3418,-4.66797l-10.67773,-23.5625c3.781,-1.91 7.34137,-3.57603 10.85938,-5.08203c3.465,-1.485 5.07675,-5.50866 3.59375,-8.97266v-0.00195c-1.484,-3.456 -5.50766,-5.06889 -8.97266,-3.58789c-3.659,1.568 -7.30805,3.26759 -11.12305,5.18359l-10.69922,-23.61523c-1.499,-3.312 -4.82094,-5.45312 -8.46094,-5.45312zM46.19141,16c2.857,0 5.46267,1.67834 6.63867,4.27734l11.12891,24.56641c0.113,0.248 0.32208,0.4383 0.58008,0.5293c0.257,0.091 0.5382,0.07322 0.7832,-0.05078c4.117,-2.09 8.0225,-3.92261 11.9375,-5.59961c2.453,-1.045 5.29961,0.09406 6.34961,2.53906c1.049,2.45 -0.09197,5.29666 -2.54297,6.34766c-3.821,1.635 -7.69203,3.45831 -11.83203,5.57031c-0.477,0.243 -0.67803,0.81769 -0.45703,1.30469l11.07422,24.43555c0.407,0.897 0.33088,1.92681 -0.20312,2.75781c-0.533,0.828 -1.43978,1.32227 -2.42578,1.32227h-5.83398c-1.12,0 -2.14719,-0.65683 -2.61719,-1.67383l-9.85742,-21.22852c-0.119,-0.257 -0.34033,-0.4502 -0.61133,-0.5332c-0.097,-0.03 -0.19492,-0.04492 -0.29492,-0.04492c-0.178,0 -0.35767,0.04567 -0.51367,0.13867c-14.745,8.774 -24.96433,17.23259 -29.23633,21.80859c-0.923,0.989 -2.17716,1.5332 -3.53516,1.5332h-5.83398c-0.957,0 -1.84872,-0.47077 -2.38672,-1.25977c-0.539,-0.786 -0.65464,-1.78769 -0.30664,-2.67969l23.21289,-59.42578c1.1,-2.815 3.7632,-4.63477 6.7832,-4.63477zM46.19141,18.50195c-1.982,0 -3.73108,1.19397 -4.45508,3.04297l-13.82617,35.39844c-0.101,0.256 0.0252,0.54744 0.2832,0.64844c0.06,0.023 0.12259,0.0332 0.18359,0.0332c0.2,0 0.38784,-0.12136 0.46484,-0.31836l13.82813,-35.39844c0.572,-1.463 1.95348,-2.40625 3.52148,-2.40625c1.484,0 2.83822,0.8717 3.44922,2.2207l2.48633,5.48438c0.113,0.252 0.41216,0.36005 0.66016,0.24805c0.252,-0.113 0.36205,-0.40916 0.24805,-0.66016l-2.48437,-5.48437c-0.771,-1.706 -2.48338,-2.80859 -4.35937,-2.80859zM46.38086,35.54492c-0.399,0.013 -0.75439,0.26277 -0.90039,0.63477l-9.85937,25.08594c-0.162,0.414 -0.03364,0.88525 0.31836,1.15625c0.179,0.14 0.39628,0.21094 0.61328,0.21094c0.205,0 0.41094,-0.06541 0.58594,-0.19141c5.2,-3.761 10.72673,-7.36398 16.42773,-10.70898c0.444,-0.261 0.61934,-0.8162 0.40234,-1.2832l-6.65039,-14.32617c-0.168,-0.362 -0.4935,-0.60012 -0.9375,-0.57812zM46.48633,39.08594l5.28516,11.38477c-4.49,2.66 -8.86855,5.47439 -13.06055,8.40039zM26.84766,60.5c-0.1943,0.0053 -0.37542,0.12561 -0.45117,0.31836l-3.32031,8.5c-0.101,0.256 0.0252,0.54744 0.2832,0.64844c0.06,0.023 0.12259,0.0332 0.18359,0.0332c0.2,0 0.38884,-0.12136 0.46484,-0.31836l3.31836,-8.5c0.101,-0.256 -0.0252,-0.54548 -0.2832,-0.64648c-0.064,-0.0255 -0.13055,-0.03692 -0.19531,-0.03516zM70.91406,67c-0.06476,0.00164 -0.12941,0.01667 -0.19141,0.04492c-0.252,0.113 -0.36205,0.40916 -0.24805,0.66016l3.05859,6.75c0.083,0.185 0.26508,0.29492 0.45508,0.29492c0.07,0 0.13908,-0.01492 0.20508,-0.04492c0.252,-0.113 0.364,-0.40916 0.25,-0.66016l-3.05859,-6.75c-0.08475,-0.189 -0.27641,-0.29984 -0.4707,-0.29492zM75.73633,77.63867c-0.06477,0.00164 -0.12941,0.01667 -0.19141,0.04492c-0.252,0.113 -0.364,0.40916 -0.25,0.66016l1.29688,2.86133c0.083,0.185 0.26508,0.29492 0.45508,0.29492c0.069,0 0.14103,-0.01492 0.20703,-0.04492c0.252,-0.113 0.36205,-0.40916 0.24805,-0.66016l-1.29687,-2.86328c-0.08475,-0.189 -0.27445,-0.29789 -0.46875,-0.29297z"></path></g></g>
</svg>