<svg width="24" height="22" viewBox="0 0 24 22" fill="none" xmlns="http://www.w3.org/2000/svg">
<g id="Eye - hide">
<path id="Vector" d="M19.6664 12.9114C19.5963 12.9479 19.5191 12.9715 19.439 12.9807C19.359 12.9899 19.2778 12.9846 19.2 12.965C19.1222 12.9455 19.0494 12.9121 18.9857 12.8667C18.922 12.8213 18.8688 12.7649 18.829 12.7007L17.3718 10.3694C16.5247 10.8939 15.5902 11.289 14.6048 11.5393L15.055 14.0124C15.0683 14.0852 15.0658 14.1597 15.0476 14.2316C15.0294 14.3035 14.9959 14.3714 14.9491 14.4315C14.9022 14.4916 14.8429 14.5426 14.7745 14.5816C14.7061 14.6207 14.6299 14.647 14.5504 14.6591C14.5177 14.664 14.4846 14.6666 14.4515 14.6668C14.3063 14.6666 14.1659 14.6193 14.0553 14.5333C13.9447 14.4473 13.8709 14.3282 13.8471 14.1971L13.4046 11.7689C12.4715 11.8878 11.5248 11.8878 10.5916 11.7689L10.1491 14.1971C10.1253 14.3284 10.0513 14.4477 9.94035 14.5338C9.82939 14.6198 9.68866 14.667 9.54325 14.6668C9.50934 14.6667 9.47549 14.6641 9.44202 14.6591C9.36249 14.647 9.28635 14.6207 9.21794 14.5816C9.14953 14.5426 9.09019 14.4916 9.04333 14.4315C8.99646 14.3714 8.96299 14.3035 8.94481 14.2316C8.92663 14.1597 8.92412 14.0852 8.9374 14.0124L9.38987 11.5393C8.40488 11.2882 7.47092 10.8924 6.62441 10.3673L5.17189 12.7007C5.09053 12.8305 4.95619 12.9254 4.79841 12.9645C4.64064 13.0036 4.47236 12.9837 4.33059 12.9092C4.18883 12.8348 4.08519 12.7117 4.04247 12.5673C3.99975 12.4228 4.02146 12.2687 4.10282 12.1389L5.63663 9.68128C5.09788 9.2551 4.60248 8.78505 4.15651 8.27689C4.10089 8.22004 4.05851 8.1534 4.03196 8.08105C4.0054 8.00869 3.99523 7.93214 4.00206 7.85607C4.0089 7.78 4.03259 7.706 4.07169 7.63859C4.1108 7.57119 4.1645 7.51178 4.22951 7.46401C4.29452 7.41623 4.36949 7.38109 4.44983 7.36072C4.53017 7.34036 4.6142 7.3352 4.69679 7.34556C4.77938 7.35592 4.8588 7.38158 4.9302 7.42098C5.0016 7.46037 5.06348 7.51268 5.11207 7.5747C6.38514 9.017 8.61223 10.7346 11.9974 10.7346C15.3825 10.7346 17.6096 9.0149 18.8826 7.5747C18.9307 7.51141 18.9924 7.45784 19.064 7.41734C19.1356 7.37683 19.2156 7.35025 19.2989 7.33925C19.3822 7.32825 19.4671 7.33306 19.5483 7.35339C19.6295 7.37372 19.7053 7.40913 19.7709 7.45742C19.8365 7.50571 19.8905 7.56584 19.9297 7.63408C19.9688 7.70231 19.9922 7.77719 19.9983 7.85406C20.0045 7.93092 19.9934 8.00813 19.9655 8.08087C19.9377 8.15361 19.8939 8.22034 19.8367 8.27689C19.3907 8.78505 18.8953 9.2551 18.3565 9.68128L19.8904 12.1389C19.9315 12.203 19.9584 12.2739 19.9694 12.3476C19.9805 12.4212 19.9754 12.4961 19.9546 12.568C19.9337 12.6398 19.8975 12.7072 19.8481 12.7661C19.7986 12.8251 19.7369 12.8744 19.6664 12.9114Z" fill="black"/>
</g>
</svg>
