<svg width="16" height="18" viewBox="0 0 16 18" fill="none" xmlns="http://www.w3.org/2000/svg">
<g id="Frame">
<path id="Vector" d="M13.951 8.7681C13.9331 8.72952 13.5093 7.80333 12.5732 6.8819C11.3206 5.65095 9.74202 5 8.00036 5C6.25871 5 4.68009 5.65095 3.429 6.8819C2.49286 7.80333 2.06905 8.72952 2.0497 8.7681C2.01693 8.84124 2 8.9203 2 9.00024C2 9.08018 2.01693 9.15924 2.0497 9.23238C2.0676 9.27143 2.49141 10.1971 3.42803 11.1186C4.68009 12.3495 6.25871 13 8.00036 13C9.74202 13 11.3206 12.3495 12.5712 11.1186C13.5079 10.1971 13.9317 9.27143 13.9496 9.23238C13.9826 9.15934 13.9997 9.08033 14 9.00039C14.0002 8.92045 13.9836 8.84134 13.951 8.7681ZM11.7227 10.3395C10.684 11.3462 9.43191 11.8571 8.00036 11.8571C6.56882 11.8571 5.31676 11.3462 4.27951 10.339C3.87135 9.94154 3.52026 9.49103 3.23596 9C3.52034 8.50917 3.87143 8.05883 4.27951 7.66143C5.31724 6.65381 6.56882 6.14286 8.00036 6.14286C9.43191 6.14286 10.6835 6.65381 11.7212 7.66143C12.1293 8.05879 12.4804 8.50914 12.7648 9C12.4804 9.491 12.1293 9.9415 11.7212 10.339L11.7227 10.3395ZM8.00036 6.90476C7.57935 6.90476 7.16779 7.02765 6.81772 7.25787C6.46766 7.4881 6.19482 7.81533 6.03371 8.19819C5.87259 8.58104 5.83044 9.00232 5.91257 9.40876C5.99471 9.8152 6.19745 10.1885 6.49515 10.4816C6.79285 10.7746 7.17215 10.9741 7.58507 11.055C7.998 11.1358 8.42601 11.0943 8.81498 10.9357C9.20394 10.7772 9.5364 10.5086 9.7703 10.1641C10.0042 9.81949 10.1291 9.4144 10.1291 9C10.1284 8.4445 9.90393 7.91194 9.50487 7.51914C9.1058 7.12634 8.56473 6.90539 8.00036 6.90476ZM8.00036 9.95238C7.80899 9.95238 7.62192 9.89653 7.4628 9.79188C7.30368 9.68723 7.17966 9.53849 7.10643 9.36446C7.03319 9.19044 7.01403 8.99894 7.05137 8.8142C7.0887 8.62946 7.18085 8.45976 7.31617 8.32657C7.45149 8.19337 7.6239 8.10267 7.81159 8.06592C7.99929 8.02917 8.19384 8.04803 8.37064 8.12012C8.54744 8.1922 8.69856 8.31427 8.80488 8.47089C8.9112 8.6275 8.96795 8.81164 8.96795 9C8.96795 9.25259 8.86601 9.49483 8.68455 9.67344C8.50309 9.85204 8.25698 9.95238 8.00036 9.95238Z" fill="black"/>
</g>
</svg>
